<svg 
width="167" 
height="145" 
viewBox="0 0 167 145" 
fill="none" 
xmlns="http://www.w3.org/2000/svg">
<path d="M-18.1868 -35.3694C-13.4338 -30.6089 -8.67968 -25.8711 -3.92667 -21.1106C-14.9496 8.12051 -25.984 37.3653 -37.007 66.5964C-36.4031 67.102 -35.7878 67.594 -35.1725 68.086C-24.1747 38.9278 -13.1769 9.76957 -2.19066 -19.375C2.30473 -14.8878 6.79903 -10.3778 11.2944 -5.89061C1.13035 22.1463 -10.0965 49.9877 -22.4037 77.5468C-21.785 77.9704 -21.1664 78.394 -20.5582 78.8085C-8.31288 51.4089 2.90633 23.7271 13.0512 -4.13674C17.3711 0.172788 21.6898 4.50508 26.0096 8.81461C15.384 35.1884 4.74691 61.5759 -5.8787 87.9498C-5.22562 88.3324 -4.58293 88.7058 -3.91837 89.0747C6.63284 62.8969 17.184 36.719 27.7352 10.5412C32.2607 15.0785 36.7873 19.593 41.3128 24.1303C33.2335 49.1272 24.261 74.0059 14.3975 98.7208C15.0642 99.0441 15.7414 99.3765 16.4081 99.6999C26.1825 75.263 35.0877 50.6577 43.11 25.9434C47.7706 30.5991 52.4416 35.264 57.0907 39.9334C49.5684 62.3555 41.1967 84.6502 31.9892 106.758C32.6686 107.045 33.3583 107.341 34.0376 107.628C43.133 85.8253 51.4144 63.8314 58.8672 41.7283C62.6592 45.5276 66.4627 49.3132 70.2547 53.1125C64.186 73.4608 57.2885 93.7 49.5958 113.812C50.2981 114.071 51.0005 114.331 51.6913 114.604C59.2697 94.8431 66.0757 74.9275 72.0727 54.9438C76.7021 59.5723 81.3315 64.2007 85.9609 68.8291C82.2494 86.3286 76.8395 103.788 69.8296 120.96C70.533 121.197 71.2479 121.42 71.9513 121.657C78.8228 104.885 84.1359 87.8637 87.8933 70.7606C89.4745 72.3368 91.0454 73.9039 92.6151 75.4938C92.6922 75.9176 92.9569 76.2684 93.4421 76.3138C94.5787 77.4527 95.7257 78.6007 96.8622 79.7396C94.5151 94.9921 89.6539 110.273 82.4812 124.975C83.1961 125.199 83.9121 125.399 84.627 125.622C91.5623 111.352 96.3889 96.5637 98.8974 81.785C102.369 85.2563 105.831 88.7185 109.303 92.1898C106.47 104.713 102.794 117.186 98.3223 129.555C99.0602 129.751 99.7762 129.951 100.503 130.16C104.835 118.215 108.402 106.193 111.215 94.1031C114.438 97.333 117.662 100.563 120.887 103.77C117.825 112.032 114.763 120.318 111.701 128.58C111.202 129.948 110.681 131.319 110.182 132.687C110.91 132.873 111.637 133.06 112.355 133.237C113.102 131.209 113.882 129.186 114.628 127.18C117.304 119.957 119.968 112.747 122.644 105.524C125.372 108.248 128.1 110.972 130.828 113.696C129.231 121.248 127.319 128.785 125.139 136.3C125.888 136.482 126.638 136.642 127.367 136.805C129.428 129.755 131.229 122.714 132.771 115.637C135.953 118.83 139.137 122.001 142.319 125.195C141.184 129.875 139.844 134.541 138.321 139.19C139.071 139.349 139.822 139.508 140.551 139.649C141.933 135.47 143.142 131.282 144.21 127.09C146.132 129.012 148.054 130.935 149.976 132.857C149.323 135.609 148.66 138.376 148.018 141.137C148.79 141.292 149.542 141.429 150.271 141.57C150.803 139.305 151.356 137.035 151.887 134.77C154.76 137.645 157.622 140.51 160.495 143.385C164.117 143.949 166.097 144.212 166.097 144.212C166.097 144.212 165.761 142.208 165.047 138.567C161.855 135.364 158.651 132.175 155.448 128.964C157.93 128.931 160.433 128.68 162.943 128.269C162.776 127.481 162.609 126.669 162.411 125.831C159.171 126.315 155.946 126.48 152.771 126.308C150.539 124.067 148.306 121.848 146.075 119.607C150.898 119.537 155.786 119.002 160.675 118.017C160.485 117.233 160.307 116.435 160.13 115.615C154.959 116.615 149.791 117.095 144.716 117.014C144.38 117.005 144.071 117.137 143.824 117.324C139.711 113.22 135.609 109.102 131.496 104.997C139.883 104.229 148.307 103.137 156.779 101.731C156.579 100.939 156.38 100.123 156.159 99.3119C147.12 100.791 138.132 101.91 129.16 102.665C125.461 98.9702 121.761 95.2756 118.084 91.5765C129.646 90.3154 141.244 88.7535 152.868 86.9045C152.647 86.0934 152.425 85.3052 152.193 84.485C140.024 86.4253 127.882 88.0329 115.778 89.2942C111.253 84.7569 106.716 80.2333 102.201 75.7051C117.427 74.5933 132.761 72.8388 148.166 70.4829C147.924 69.6764 147.681 68.8699 147.438 68.0634C131.477 70.4788 115.602 72.2333 99.8143 73.3044C96.8285 70.3068 93.8415 67.3321 90.8661 64.3436C107.997 60.128 125.117 55.9032 142.247 51.6875C141.992 50.9175 141.736 50.1475 141.471 49.3683C123.923 53.6935 106.387 58.0049 88.8506 62.3392C83.0639 56.5537 77.2667 50.7591 71.48 44.9736C93.1011 43.3175 114.925 40.3673 136.852 36.1775C136.576 35.3893 136.278 34.6056 135.991 33.8082C113.553 38.0482 91.2311 40.9895 69.0925 42.5956C63.7921 37.2838 58.4801 31.9858 53.1899 26.6831C77.6622 21.1392 102.134 15.5953 126.618 10.0378C126.287 9.2723 125.966 8.51595 125.634 7.75049C100.801 13.3811 75.9552 19.0254 51.1214 24.6559C49.1069 22.6287 47.081 20.6152 45.0666 18.588C42.6075 16.1234 40.1484 13.6589 37.6882 11.2172C64.5208 4.56066 91.3316 -2.09125 118.164 -8.74775C117.799 -9.49497 117.445 -10.2331 117.08 -10.9803C89.9517 -4.2508 62.8232 2.47869 35.6727 9.21274C31.8807 5.41343 28.0772 1.62779 24.2852 -2.17151C51.7432 -11.699 79.2232 -21.2311 106.681 -30.7586C106.282 -31.4648 105.883 -32.171 105.472 -32.8635C77.9368 -23.3087 50.4016 -13.7538 22.8665 -4.19891C22.7122 -4.14418 22.5787 -4.07122 22.466 -3.98006C17.0408 -9.40113 11.6156 -14.8222 6.2019 -20.2569C36.0082 -29.7441 65.804 -39.2405 95.6103 -48.7276C95.1454 -49.4202 94.6805 -50.1127 94.2041 -50.7915C64.2436 -41.2496 34.2612 -31.7031 4.3007 -22.1611C0.239584 -26.2201 -3.82152 -30.2791 -7.89303 -34.3472C20.7538 -46.7504 49.3788 -59.1491 78.0257 -71.5524C77.4814 -72.1719 76.9153 -72.787 76.3596 -73.3929C47.6794 -60.9714 18.9992 -48.5499 -9.66954 -36.1421C-13.9998 -40.4607 -18.3185 -44.793 -22.6487 -49.1116C4.31799 -63.9614 31.7019 -77.3531 59.3603 -89.2457C58.6619 -89.8106 57.9519 -90.3617 57.2523 -90.9038C29.7345 -79.0067 2.51303 -65.615 -24.3224 -50.7926C-31.3496 -57.8081 -38.3549 -64.8282 -45.3822 -71.8437C-21.2496 -85.1889 3.18764 -97.4359 27.8419 -108.567C26.8557 -109.004 25.8788 -109.409 24.9019 -109.814C0.819817 -98.8706 -23.0545 -86.8425 -46.6325 -73.7709C-46.7774 -73.6842 -46.8901 -73.5931 -47.0143 -73.4882C-49.97 -76.4356 -52.9142 -79.3967 -55.87 -82.3441C-36.853 -93.8104 -17.837 -105.254 1.17996 -116.72C0.0203512 -116.929 -1.11847 -117.12 -2.28026 -117.284C-20.6945 -106.192 -39.1087 -95.0993 -57.5343 -83.9932C-60.4589 -86.9133 -63.3834 -89.8334 -66.2965 -92.7672C-67.8238 -91.1855 -69.2888 -89.5491 -70.6914 -87.8581C-69.8748 -87.0472 -69.0686 -86.2455 -68.2635 -85.4209C-75.985 -67.1865 -83.6951 -48.9658 -91.4167 -30.7314C-91.3299 -29.1593 -91.1889 -27.5873 -90.9926 -26.038C-82.8552 -45.2613 -74.7064 -64.4984 -66.569 -83.7217C-63.9655 -81.1068 -61.3402 -78.4965 -58.7367 -75.8816C-68.1936 -53.0899 -77.6506 -30.2981 -87.1295 -7.50173C-86.8041 -6.3854 -86.4683 -5.25996 -86.1107 -4.13907C-76.4212 -27.4869 -66.7317 -50.8346 -57.0318 -74.1733C-52.9811 -70.1235 -48.9304 -66.0736 -44.8797 -62.0237C-56.0172 -36.2649 -67.1444 -10.497 -78.2819 15.2618C-77.857 16.1092 -77.4216 16.9658 -76.9759 17.8315C-65.7158 -8.22356 -54.4557 -34.2786 -43.1956 -60.3336C-39.6612 -56.8077 -36.1279 -53.2589 -32.5935 -49.7329C-32.4896 -49.6418 -32.3971 -49.537 -32.3047 -49.4323C-42.9731 -21.7187 -54.8853 5.73549 -68.0036 32.8209C-67.5283 33.5226 -67.0415 34.2105 -66.5662 34.9121C-53.356 7.71728 -41.3405 -19.86 -30.5906 -47.6921C-30.1355 -47.2456 -29.6815 -46.7764 -29.2265 -46.33C-29.157 -46.1978 -29.0531 -46.1067 -28.9366 -46.0521C-25.9705 -43.0955 -23.0158 -40.1253 -20.0497 -37.1688C-29.5625 -7.13613 -40.3453 22.7329 -52.3835 52.3562C-51.8163 52.9484 -51.2491 53.5406 -50.6819 54.1329C-38.5573 24.5141 -27.7422 -5.35038 -18.1868 -35.3694Z" fill="#97C9CE"/>
</svg>
