<svg width="44" height="64" viewBox="0 0 44 64" fill="none" xmlns="http://www.w3.org/2000/svg">
<path d="M2.11516 10.1596C2.05359 9.56942 2.51643 9.05579 3.10976 9.05579H40.8902C41.4836 9.05579 41.9464 9.56942 41.8848 10.1596L36.4597 62.1596C36.4066 62.6689 35.9772 63.0558 35.4651 63.0558H8.5349C8.02279 63.0558 7.59344 62.6689 7.5403 62.1596L2.11516 10.1596Z" fill="#E1E1E1"/>
<path d="M4.85262 3.32505C4.18956 3.94449 4.62789 5.05579 5.53528 5.05579H38.4647C39.3721 5.05579 39.8104 3.94449 39.1474 3.32505L35.9361 0.325051C35.7509 0.152028 35.5069 0.0557861 35.2535 0.0557861H8.74655C8.49309 0.0557861 8.24909 0.152027 8.06389 0.325051L4.85262 3.32505Z" fill="white"/>
<path d="M0.206507 9.88245C0.0987592 10.4947 0.569755 11.0558 1.19137 11.0558H42.7382C43.3828 11.0558 43.859 10.4549 43.7117 9.82733L43.0077 6.82733C42.9017 6.37533 42.4984 6.05579 42.0342 6.05579H1.71937C1.23396 6.05579 0.818647 6.40439 0.734507 6.88245L0.206507 9.88245Z" fill="white"/>
<rect x="2" y="4.05579" width="40" height="3" rx="1" fill="white"/>
</svg>
